<svg id="color" height="512" viewBox="0 0 24 24" width="512" xmlns="http://www.w3.org/2000/svg"><path d="m18 3c0-1.654-1.346-3-3-3h-10c-1.654 0-3 1.346-3 3v18c0 1.654 1.346 3 3 3h10c1.654 0 3-1.346 3-3z" fill="#607d8b"/><path d="m16 21c0 .553-.448 1-1 1h-10c-.552 0-1-.447-1-1v-18c0-.553.448-1 1-1h.5c.552 0 1 .447 1 1s.448 1 1 1h5c.552 0 1-.447 1-1s.448-1 1-1h.5c.552 0 1 .447 1 1z" fill="#fff"/><path d="m15.5 17c-3.706 0-6.5-1.505-6.5-3.5v-3c0-.414.336-.75.75-.75h11.5c.414 0 .75.336.75.75v3c0 1.995-2.794 3.5-6.5 3.5z" fill="#2196f3"/><path d="m15.5 14c-3.706 0-6.5-1.505-6.5-3.5s2.794-3.5 6.5-3.5 6.5 1.505 6.5 3.5-2.794 3.5-6.5 3.5z" fill="#64b5f6"/><path d="m10 0h-5c-1.654 0-3 1.346-3 3v18c0 1.654 1.346 3 3 3h5v-2h-5c-.552 0-1-.447-1-1v-18c0-.553.448-1 1-1h.5c.552 0 1 .447 1 1s.448 1 1 1h2.5z" fill="#546d79"/><path d="m9 10.5v3c0 1.995 2.794 3.5 6.5 3.5v-3c-3.706 0-6.5-1.505-6.5-3.5z" fill="#1d83d4"/><path d="m15.5 7c-3.706 0-6.5 1.505-6.5 3.5 0 1.995 2.794 3.5 6.5 3.5z" fill="#579ed6"/></svg>